<?xml version="1.0" ?><!DOCTYPE svg  PUBLIC '-//W3C//DTD SVG 1.1//EN'  'http://www.w3.org/Graphics/SVG/1.1/DTD/svg11.dtd'><svg height="512px" style="enable-background:new 0 0 512 512;" version="1.1" viewBox="0 0 512 512" width="512px" xml:space="preserve" xmlns="http://www.w3.org/2000/svg" xmlns:xlink="http://www.w3.org/1999/xlink"><g id="google__x2C__plus__x2C__icons__x2C__social__x2C_media"><g><path d="M425.614,86.349C382.172,42.901,322.258,16.07,255.96,16.07    c-66.297,0-126.212,26.831-169.654,70.278c-43.438,43.445-70.277,103.359-70.277,169.652c0,66.29,26.839,126.209,70.277,169.652    c43.442,43.447,103.357,70.276,169.654,70.276c66.298,0,126.212-26.829,169.654-70.276    c43.438-43.443,70.282-103.362,70.282-169.652C495.896,189.708,469.053,129.794,425.614,86.349z M412.332,412.499    c-39.993,39.993-95.261,64.702-156.372,64.702s-116.379-24.709-156.372-64.702c-40.112-40.117-64.826-95.385-64.826-156.498    c0-61.111,24.714-116.379,64.826-156.367c39.993-39.988,95.261-64.835,156.372-64.835s116.379,24.847,156.372,64.835    c40.117,39.988,64.821,95.256,64.821,156.367C477.153,317.114,452.449,372.382,412.332,412.499z" style="fill:#262626;"/><path d="M280.404,239.263c-17.668,0.265-35.337,0.265-53.005,0.265c-5.044,0-10.226-0.265-15.151,0    c-1.055,0-2.65,0.458-2.65,1.123c-0.132,10.232-0.132,21.35-0.132,30.35c14.479,0,28.694,0,43.173,0    c-0.393,0-0.79,4.453-1.458,5.92c-6.516,19.664-26.843,29.731-48.761,26.146c-27.104-4.52-43.835-29.312-38.924-56.413    c0.535-3.854,1.86-7.481,3.189-10.938c9.028-19.661,31.215-31.575,53.143-26.659c7.836,1.728,14.616,5.341,20.318,10.52    c7.973-7.971,15.549-15.532,23.782-23.768c-0.53-0.399-1.458-1.058-1.987-1.72c-19.131-16.077-41.059-22.055-65.635-17.936    c-35.475,5.714-60.974,33.616-66.42,66.161c-2.522,13.819-1.462,28.568,3.989,42.916c13.552,34.414,48.217,55.532,85.418,51.415    c18.199-1.991,34.415-8.503,46.902-21.922c18.719-19.926,23.635-43.841,20.588-70.277    C286.248,240.06,284.526,239.263,280.404,239.263z" style="fill:#262626;"/><path d="M353,237c0,0,0,3.854,0,3.722c0-1.459,0-2.654,0-3.719c0-6.776,1.365-13.552,1.232-20.461    c0-1.06-1.086-3.054-1.616-3.054c-6.104-0.268-9.616-0.268-18.616-0.268c0,8.238,0,15.946,0,23.782c0,1.462,0-0.003,0-0.003    c-10,0-20,0-29,0c0,5,0,8.243,0,9.703c0,5.049,0.996,10.228,1.389,15.276c4.916,0.266,9.688,0.53,14.865,0.53    c4.126,0.132,7.746,0,12.746,0c0,9.833,0,18.87,0,27.898c9-0.132,14,0,19,0c0-9.303,0-19.408,0-28.408c10,0,19,0,29,0    c0-5,0-9.985,0-15.297c0-1.729,0-4.703,0-9.703c-5,0-13.641,0-21.221,0C359.189,237,358,237,353,237z" style="fill:#262626;"/></g></g><g id="Layer_1"/></svg>